<?xml version="1.0" encoding="UTF-8"?>
<svg id="cadeira" xmlns="http://www.w3.org/2000/svg" viewBox="0 0 1920 2500">
  <defs>
    <style>
      .cls-1 {
        fill: #fff;
      }

      .cls-2 {
        fill: #3f3f54;
      }

      .cls-3 {
        fill: #27273d;
      }

      .cls-4 {
        fill: #1f1f39;
      }

      .cls-5 {
        fill: #e5e5e5;
      }

      .cls-6 {
        fill: #32323f;
        opacity: .1;
      }

      .cls-7 {
        fill: #2c2c44;
      }

      .cls-8 {
        fill: #17172d;
      }
    </style>
  </defs>
  <path class="cls-6" d="M340.92,1737.54c.02,7.52,133.9,15.98,288.14,15.65,154.24-.33,279.26-6.7,279.25-14.22-.02-7.52-125.07-13.36-279.31-13.03-154.24,.33-288.1,4.08-288.08,11.6Z"/>
  <g>
    <g>
      <ellipse class="cls-4" cx="864.57" cy="1713.96" rx="23.18" ry="23.38"/>
      <ellipse class="cls-1" cx="864.57" cy="1713.96" rx="9.82" ry="9.91"/>
    </g>
    <g>
      <g>
        <path class="cls-5" d="M702.02,1353.27c15.38-53,33.6-95.13,59.39-96.7,25.8-1.56,46.51,3.91,26.19,6.64-13.19,1.78-27.54,14.81-33.4,26.71-13.09,26.58-14.27,57.72-18.96,70.22-4.69,12.51-39.22,13.79-33.22-6.88Z"/>
        <path class="cls-2" d="M737.45,1235.47c-18.37,.39-20.71,31.66,4.3,31.66s113.86,2.64,127.54,2.64,31.46-28.01-9.97-31.07c-41.43-3.07-121.88-3.22-121.88-3.22Z"/>
      </g>
      <rect class="cls-5" x="654.73" y="1469.74" width="28.15" height="113.97"/>
      <path class="cls-2" d="M914.26,1347.91c-1.65,12.35-.7,20.58-20.93,28.81-5.27,2.14-17.21,6.94-32.32,12.94-1.6,.64-3.24,1.28-4.91,1.94-3.07,1.21-6.24,2.47-9.5,3.75-4.96,1.95-10.11,3.97-15.35,6.02-7.5,2.93-15.19,5.91-22.8,8.83-1.45,.55-2.89,1.11-4.33,1.66-30.96,11.85-59.74,22.37-67.77,23.76-7.19,1.25-17.71-1.43-26.49-5.48h0c-3.58-1.66-6.87-3.55-9.53-5.5h0c-6.9-5.06-9.51-10.52-1.72-13.35,2.28-.83,6.59-2.4,12.41-4.53,18.62-6.82,52.65-19.39,84.71-31.82,1.45-.56,2.89-1.12,4.33-1.68,17.67-6.88,34.5-13.64,47.5-19.27,1.69-.73,3.31-1.44,4.86-2.13,10.78-4.78,18.13-8.54,19.87-10.53,4.44-5.07,15.82-6.46,25.63-4.93h0c9.28,1.45,17.15,5.51,16.35,11.51Z"/>
      <path class="cls-2" d="M646.16,1452.69c0,26.68-3.46,35.34,15.94,35.68,19.4,.35,29.1-.35,29.45-9.7,.35-9.35,0-29.79,0-29.79l-45.38,3.81Z"/>
      <path class="cls-4" d="M611.53,1435.93c2.09,11.17,5.18,24.75,63.21,23.51,58.03-1.23,61.62-23.82,61.62-23.82l-47.43-14.45-72.23,2.47-5.18,12.29Z"/>
      <path class="cls-4" d="M653.55,1460.88c-26.34,6.79-40.33,10.45-51.44,7.78-11.11-2.68-54.94-13.95-54.94-5.1,0,5.1,42.39,16.67,57.2,15.64,14.82-1.03,52.68-12.76,52.68-12.76l-3.5-5.56Z"/>
      <g>
        <path class="cls-3" d="M901.91,1342.98c-4.34,5.97-22.57,15.33-45.79,25.2-1.6,.68-3.23,1.36-4.88,2.05-14.92,6.21-31.56,12.54-47.73,18.28-1.46,.52-2.91,1.03-4.36,1.54-32.97,11.55-63.14,20.36-71.66,20.32h0c-4.61,0,2.53,13.34-12.98,18.6h0c-1.36,.46-2.89,.86-4.62,1.18h0c-3.27,.61-7.25,.94-12.09,.9-30.42-.23-58.33-2.44-81.97-5.28-16.47-1.97-30.88-4.25-42.64-6.38,0,0,0,0,0,0-11.05-1.99-19.75-3.85-25.62-5.19h0c-5.6-1.28-8.62-2.09-8.62-2.09l-81.97-318.56-26.16-29.03s-.91,2.69-.91,2.69c1.81-.4,7.35,2.11,9.21,1.69,0,0-7.86-7.35-7.86-7.35,78.13-17.66,170.86-49.19,197.87-9.5,12.91,18.97,20.24,168.56,45.18,229.87,5.5,13.52,11.54,25.26,18.26,34,5.14,6.69,10.67,11.62,16.63,14.23,2.95,1.3,6.01,2.02,9.18,2.12,6.56,.19,14.28,.24,22.78,.2,13.47-.06,28.91-.35,44.77-.6,1.56-.02,3.13-.05,4.69-.07,17.62-.27,35.58-.48,51.82-.31,1.81,.02,3.6,.05,5.36,.08,22.86,.39,41.64,1.67,50.12,4.83h0c4.4,1.64,6.03,3.79,4,6.57Z"/>
        <path class="cls-2" d="M748.23,1426.21c-.13,20.36-95.06,14.57-197.18,4.01-20.98-2.17-37.85-23.66-52.13-53.1-3.78-7.8-7.39-16.16-10.84-24.86-13.15-33.16-24.09-71.35-34.39-102.82-15.96-48.76-44.71-177.56-24.34-187.2h0s0,0,.01,0c1.44-.68,3.24-1.09,5.45-1.22,3.15-.19,7.24-.24,12.04,1.25,15.61,4.85,44.15,205.37,80.45,281.99,3.88,8.19,7.82,15.75,11.84,22.48,11.42,19.11,23.5,31.49,36.6,32.2,44.88,2.43,117.37,1.28,152.34,11.42h.01c12.48,3.62,20.18,8.68,20.14,15.85Z"/>
      </g>
      <path class="cls-7" d="M877.63,1683.43c0,10.84-53.07-.05-107.27-11.04-23.64-4.79-47.5-9.59-67.25-12.62-14.01-2.14-25.96-3.39-34.31-3.1-13.21,.46-36.16,3.77-62.31,8.03-9.94,1.62-20.34,3.37-30.85,5.15-60.37,10.25-124.14,21.54-123.13,13.98,1.65-12.35,175.32-68.73,216.3-68.73s208.83,58.85,208.83,68.32Z"/>
      <g>
        <ellipse class="cls-4" cx="773.26" cy="1718.95" rx="23.18" ry="23.38"/>
        <ellipse class="cls-1" cx="773.26" cy="1718.95" rx="9.82" ry="9.91"/>
      </g>
      <g>
        <ellipse class="cls-4" cx="558.44" cy="1718.95" rx="23.18" ry="23.38"/>
        <ellipse class="cls-1" cx="558.44" cy="1718.95" rx="9.82" ry="9.91"/>
      </g>
      <g>
        <ellipse class="cls-4" cx="470.85" cy="1713.96" rx="23.18" ry="23.38"/>
        <ellipse class="cls-1" cx="470.85" cy="1713.96" rx="9.82" ry="9.91"/>
      </g>
      <g>
        <path class="cls-5" d="M547.16,1404.46c16.2-55.81,35.38-100.17,62.54-101.82,27.16-1.65,48.97,4.12,27.57,7-13.89,1.87-29,15.6-35.17,28.12-13.79,27.99-15.02,60.77-19.96,73.94-4.94,13.17-41.3,14.52-34.98-7.24Z"/>
        <path class="cls-2" d="M584.48,1280.42c-19.34,.41-21.81,33.34,4.53,33.34s119.89,2.78,134.3,2.78,33.13-29.49-10.49-32.72c-43.62-3.23-128.33-3.4-128.33-3.4Z"/>
      </g>
      <path class="cls-8" d="M770.37,1672.39c-23.64-4.79-47.5-9.59-67.25-12.62l-22.46-8.27s-7.95-32.92,5.3-32.33c12.78,.56,54.04,26.6,84.41,53.22Z"/>
      <path class="cls-8" d="M606.49,1664.71c-9.94,1.62-20.34,3.37-30.85,5.15,22.83-26.06,76.48-54.6,77.61-48.11,.84,4.82-29.03,29.05-46.76,42.95Z"/>
      <path class="cls-7" d="M653.25,1621.76c-62.32,28.52-92.12,74.8-80.37,75.17,23.05,.72,95.92-40.25,95.92-40.25l-15.56-34.92Z"/>
      <path class="cls-7" d="M682.88,1621.76c61.78,23.16,100.48,72.62,88.73,72.99-23.05,.72-102.8-38.07-102.8-38.07l14.08-34.92Z"/>
      <path class="cls-4" d="M647.41,1538.7c-.51,9.62,.17,103.79-.02,123.19-.13,13.12,43.05,6.04,43-.83-.06-9.36-1.53-112.76-1.82-122.36-.29-9.6-40.66-9.62-41.17,0Z"/>
    </g>
  </g>
</svg>