<?xml version="1.0" encoding="UTF-8"?>
<svg id="nuvem1" xmlns="http://www.w3.org/2000/svg" viewBox="0 0 1920 2500">
  <defs>
    <style>
      .cls-1 {
        fill: #fff;
      }
    </style>
  </defs>
  <path class="cls-1" d="M1369.41,2344.34c-94.52,7.11-184.85-2.21-277.6-25.94-14.23-3.64-29.31-8.5-38.95-22-14.6-20.44-10.21-54.87,5.54-73.96,15.75-19.08,39.48-24.8,61.38-22.15,14.02,1.7,28.4,6.39,41.93,1.53,16.91-6.07,28.11-25.28,39.44-42.01,11.34-16.73,26.68-33.27,44.16-30.65,13.09,1.96,23.41,14.2,35.06,21.87,11.65,7.67,28.57,8.48,35.25-5.64,14.3-30.22-5.77-113.1,67.86-113.1,106.29,0,88.92,83.42,101.72,101.12,19.4,26.83,53.92,20.92,82.01,11.85,28.09-9.08,61.55-17.7,83.22,6.29,18.8,20.8,20.73,58.95,40.72,77.97,21.27,20.24,51.49,9.44,77.27,.35,25.78-9.09,59.01-12.43,73.97,15.19,12.54,23.16,3.19,56.79-14.65,73.76-17.84,16.97-41.36,21.12-63.78,22.8-145.59,10.96-277.78-6.08-394.56,2.71Z"/>
</svg>