<?xml version="1.0" encoding="UTF-8"?>
<svg id="pessoa" xmlns="http://www.w3.org/2000/svg" viewBox="0 0 1920 2500">
  <defs>
    <style>
      .cls-1 {
        fill: #fff;
      }

      .cls-2 {
        fill: #545466;
      }

      .cls-3 {
        fill: #201b2c;
      }

      .cls-4 {
        fill: #3b3b4c;
      }

      .cls-5, .cls-6, .cls-7, .cls-8, .cls-9 {
        fill: #1f1f39;
      }

      .cls-6 {
        opacity: .2;
      }

      .cls-10 {
        fill: #0267a4;
      }

      .cls-11 {
        fill: #f4ad00;
      }

      .cls-12 {
        fill: #603a3e;
      }

      .cls-13 {
        fill: #efaea6;
      }

      .cls-7 {
        opacity: .31;
      }

      .cls-14 {
        fill: #775155;
      }

      .cls-15 {
        fill: #3b3b4d;
      }

      .cls-16 {
        fill: #eeada5;
      }

      .cls-17 {
        fill: none;
        stroke: #fff;
        stroke-linecap: round;
        stroke-linejoin: round;
        stroke-width: 6.54px;
      }

      .cls-18 {
        fill: #32323f;
        opacity: .1;
      }

      .cls-8 {
        opacity: .26;
      }

      .cls-9 {
        opacity: .28;
      }
    </style>
  </defs>
  <path class="cls-18" d="M560.53,1756.72c0,6.63,162.08,14.32,348.84,14.32s338.15-5.37,338.15-12-151.4-12-338.15-12-348.84,3.05-348.84,9.68Z"/>
  <path class="cls-13" d="M1062.78,1713.26c0-73.96,3.82-223.7,.35-269.75-5.33-70.74-48.03-288.58-48.03-288.58l-91.46,4.19s64.83,255.51,68.15,291.33c7.84,84.48,23.31,80.12,29.71,266.08,1.79,51.98,29.38,19.37,29.38,19.37,0,0,11.9,9.54,11.9-22.63Z"/>
  <path class="cls-12" d="M1059.62,1704.73c15.44-6.69,23.22,15.24,29.76,17.86,17,6.8,30.84,9.54,39.11,12.75,15.3,5.95,19.67,28.3-2.83,27.53-19.45-.67-81.78-2.6-103.07-3.46-4.45-.18-8.25-3.26-9.19-7.52-3.37-15.2-2.25-47.69,3.71-48,9.07-2.54,24.36,8.71,42.51,.85Z"/>
  <g>
    <path class="cls-13" d="M656.99,1628.93c28.51-23.49,180.91-147.49,205.09-190.64,36.32-64.8,52.73-187.83,59.78-220.74,6.99-32.63-58.48-49.39-78.06-33.39-9.55,7.8-25.64,199.79-46.91,227.62-46.55,60.9-63.07,98.47-167.52,186.86-23.1,19.55,2,34.6,2,34.6,0,0-2.88,19.17,25.63-4.32Z"/>
    <path class="cls-5" d="M664.63,1627.43c3.58,3.07-1.13,4.02-5.82,9.33-10.74,12.15,22.6,58.84,26.51,66.65,2.02,4.03-12.88,23.12-25.86,5.08-11.22-15.6-47.35-65.45-59.52-82.6-2.54-3.59-2.34-8.4,.56-11.7,10.34-11.78,30.46-24.45,34.32-19.99,7.55,5.56,14.9,20.44,29.81,33.23Z"/>
  </g>
  <path class="cls-11" d="M948.04,1375.54c-.26-1.43-.53-2.87-.79-4.32-1.63-8.99-3.25-18.56-4.84-28.26-7.09-43.48-13.24-89.58-14.39-98.29-.13-.97-.19-1.47-.19-1.47-2.02,12.5-4.02,24.91-5.92,36.84-2.31,14.42-29.74,127.09-54.71,165.62-42.34,65.31-172.96,171.75-181.43,177.79-8.47,6.05-54.15-44.23-44.76-53.21,29.15-27.89,118.54-94.35,152.4-164.49,25.44-52.69,25.31-176.87,30.89-221.59,3.25-26,6.98-50.61,11.35-71.64,.08-.36,.17-.75,.25-1.13,1.08-5.2,2.22-10.18,3.4-14.9,1.46-5.81,53.53-10.5,94.27-13.3,26.42-1.81,48.07-2.83,48.07-2.83l28.11-4.35c9.94,38.04,26.31,101.45,40.03,157.42,4.55,18.51,8.8,36.21,12.44,51.9h0c5.76,24.9,9.97,44.76,11.33,54.86,2.02,15.09-123.57,45.78-125.51,35.33Z"/>
  <path class="cls-4" d="M933.57,1083.2l-5.55,161.48c-.13-.97-.19-1.47-.19-1.47-2.02,12.5-4.02,24.91-5.92,36.84-2.31,14.42-29.74,127.09-54.71,165.62-42.34,65.31-172.96,171.75-181.43,177.79-8.47,6.05-54.15-44.23-44.76-53.21,29.15-27.89,118.54-94.35,152.4-164.49,25.44-52.69,25.31-176.87,30.89-221.59,3.25-26,6.98-50.61,11.35-71.64,.08-.36,.17-.75,.25-1.13,1.08-5.2,2.22-10.18,3.4-14.9,1.46-5.81,53.53-10.5,94.27-13.3Z"/>
  <g>
    <path class="cls-3" d="M668.84,1188.47l37.99,5.76c5.86,.89,9.56,8.2,8.26,16.33l-3.59,22.55c-.02,.11-.12,.18-.23,.17l-7.07-1.07c-.11-.02-.19-.12-.17-.23l2.53-15.89c.97-6.08-1.79-11.55-6.17-12.21l-28.4-4.31c-4.38-.66-8.71,3.73-9.68,9.81l-2.53,15.89c-.02,.11-.12,.18-.23,.17l-7.07-1.07c-.11-.02-.19-.12-.17-.23l3.59-22.55c1.29-8.12,7.09-14,12.95-13.11Z"/>
    <path class="cls-16" d="M703.53,1153.97c.08,.03,.14,.1,.14,.19,.17,8.48,2.75,6.53,4.52,17.81,1.79,11.34,9.51,27.71,3.5,28.77-6.01,1.05-9.71-6.08-12.38-7.74s3.02,5.54-1.05,10.46c-4.08,4.92-19.03,6.32-25.16,1.39-6.13-4.93-9.72-13.91-8.73-24.92,.99-11.01,8.23-25.28,9.92-29.96,1.62-4.49,27.16,3.35,29.26,4Z"/>
    <path class="cls-3" d="M706.84,1194.14c5.86,.89,9.56,8.21,8.26,16.33l-3.6,22.55c-.02,.11-.12,.18-.23,.17l-7.07-1.07c-.11-.02-.19-.12-.17-.23l2.53-15.89c.97-6.08-1.8-11.55-6.18-12.21h0l-1.46-10.5c-.02-.13,.1-.24,.23-.22l7.68,1.08Z"/>
    <g>
      <path class="cls-12" d="M798.57,1255.76l-16.07,104.73c-.97,6.33-7,10.69-13.47,9.75l-.15-.02-191.48-25.52c-21.57-3.15-19.14-18.03-18.18-24.24l12.17-99.42c.96-6.22,11.14-21.47,28.36-18.71l170.08,24.73,6.38,.92c14.05,2.05,24.53,13.71,22.37,27.78Z"/>
      <path class="cls-14" d="M798.57,1255.76l-16.07,104.73c-.97,6.33-7,10.69-13.47,9.75h0c-.09-.01-.16-.08-.17-.16-1.23-6.53-1.11-16.51,2.29-31.74,8.26-36.97,3.83-80.88-1.29-111.01-.02-.13,.09-.25,.23-.23l6.11,.88c14.05,2.05,24.53,13.71,22.37,27.78Z"/>
    </g>
  </g>
  <path class="cls-7" d="M915.93,1110.69c-15.17,38.06-65.16,59-91.62,73.48,3.25-26,6.98-50.61,11.35-71.64,.08-.37,.16-.75,.24-1.13l80.03-.71Z"/>
  <path class="cls-13" d="M1060.71,849.38c29.19,22.44,87.01,68.79,97.35,64.3,10.34-4.48,62.75-33.69,82.45-59.56,19.7-25.88,34.49,2.07,26.07,15.08-8.41,13.01-87.34,99.92-116.66,98.87-12.38-.44-122.74-71.89-118.54-76.63,4.2-4.74,29.32-42.06,29.32-42.06Z"/>
  <path class="cls-13" d="M953.25,837.48l-32.69-20.17c4.36-16.11,5.65-56.34,12.42-69.93,7.43-14.91,8.61-13.65,8.61-13.65l20.43,21.62,9.61,10.18s-3.24,5.97-3.67,17.46c-.29,8.04,.8,18.77,5.34,32.05,3.4,9.94-20.06,22.44-20.06,22.44Z"/>
  <path class="cls-6" d="M971.64,765.53s-3.28,7.72-3.7,19.2c-25,3.5-32.48-21.32-22.03-33.12,3.58-4.05,13.91,1.39,13.91,1.39l11.83,12.52Z"/>
  <g>
    <path class="cls-13" d="M989.93,710.59c1.38,12.65,15.97,36.63,7.22,36.77-8.75,.14,2.94,26.73-6.36,27.21-22.54,1.15-48.83-12.32-52-22.92-3.18-10.6-2.31-40.4-2.31-40.4l53.46-.67Z"/>
    <path class="cls-5" d="M966.98,723.21c7.13,.68,7.39,2.32,12.32-.13,4.93-2.45-3.85-9.01,5.41-10.7,9.26-1.68,19.45-2.43,20.17-12.86,1.05-15.09-12.54-12.48-20.93-10.58-5.4,1.22-7.02-10.28-17.85-9.58-8.5,.55-7.38,5.39-14.94,6.21-4.56,.49-13.67-6.71-20.68-1.19-13,10.25-1.66,22.32-12.42,33.2-12.55,12.69,17.85,38.67,21.22,35.4,3.94-3.82-2.31-16.6,1.69-19.71,6.03-4.68,6.92,.43,12.18,5.08,5.62,4.96,15.78,5.08,9.03-4.59-6.75-9.67-1.67-11.17,4.78-10.56Z"/>
  </g>
  <path class="cls-1" d="M917.55,789.62c15.13-4.37,22.41,13.87,34.8,14.14,7.52,.16,7.01-6.46,10.31-10.18,2.03-2.29,6.17-.8,12.15-.55,15.7,.64,30.25,302.53,30.25,302.53,0,0-42.8,13.56-74.45,13.96-31.65,.41-82.71-9.09-81.94-19.95,.77-10.87,40.01-283.19,40.01-283.19,0,0,13.73-12.39,28.87-16.76Z"/>
  <path class="cls-10" d="M926.7,1069.31c.29,23.28-6.16,47.56-27.21,61.22-21.03,13.66-74.27,9.39-83.39,13.84-11.06,5.41-34.99-.67-27.63-22.96,4.88-14.78,32.03-60.94,42.97-95.86,2.4-7.68,4.02-14.82,4.45-20.96v-.15c.14-1.99,.25-3.9,.31-5.71,.12-3.16,.13-6.02,.02-8.51-.08-1.78-.23-3.36-.44-4.73-.29-1.87-.62-3.76-.96-5.66-.22-1.16-.43-2.32-.67-3.49-.14-.75-.28-1.49-.44-2.24-.63-3.12-1.31-6.23-2-9.29-.02-.1-.04-.2-.07-.3-.12-.53-.24-1.04-.35-1.57-.2-.89-.4-1.78-.61-2.66-.11-.5-.23-.99-.34-1.48-1.94-8.28-3.78-15.76-4.8-21.2-.05-.29-.1-.56-.16-.83-.23-1.34-.41-2.54-.52-3.58v-.09c-.03-.22-.05-.44-.07-.64v-.07c-.08-.95-.08-1.73,0-2.35h0c.02-.08,.02-.17,.04-.23-6.77,4.05-65.53,68.06-81.82,110.7-18.53,61.21-22.9,101.94-25.65,114.39-.02,.1-5.17-.46-5.27-.46-16.66-1.37-42.62-4.25-47.84-8.81-.03-.03-.05-.07-.07-.12-5.58-23.57,15.5-84.12,24.77-124.28,8.7-37.65,86.12-140.23,130.43-179.09,29.42-25.81,95.52-52.08,95.52-52.08,2.47,16.82-13.87,92.15,4.35,149.65,14.56,45.91,7.13,106.01,7.44,129.58Z"/>
  <path class="cls-8" d="M839.37,1010.85c-.51,.96-5.66,13.49-7.92,14.71,2.4-7.68,4.02-14.82,4.45-20.96v-.15c.14-1.99,.25-3.9,.31-5.71,.12-3.16,.13-6.02,.02-8.51-.08-1.78-.23-3.36-.44-4.73-.29-1.87-.62-3.76-.96-5.66-.22-1.16-.43-2.32-.67-3.49-.14-.75-.28-1.49-.43-2.24-.63-3.12-1.31-6.24-2.01-9.29-.02-.1-.04-.2-.07-.3-.11-.53-.23-1.05-.35-1.57-.2-.89-.4-1.78-.61-2.66-.11-.5-.23-.99-.34-1.48-1.94-8.28-3.78-15.76-4.8-21.2-.05-.29-.1-.56-.16-.83-.23-1.34-.41-2.54-.52-3.58v-.09l-.07-3.06h0c8.57-8.07,27.31-15.93,27.31-15.93,2.39,16.97-8.08,87.93-12.73,96.71Z"/>
  <g>
    <path class="cls-9" d="M949.53,812.98c-1.55-.86-14.15,28.74-33.48,39.59-5.34,3-11.15,5.23-17.33,6.02-18.09,2.31-72.27,.04-95.32-1.15,6.88-7.14,12.36-12.77,21.43-19.74,16.96,3.93,61.06,4.79,70.48,3.09,6.98-1.26,13.47-3.68,19.43-6.73,11.2-5.74,20.49-13.77,27.46-20.66,3.55-3.52,3.73-8.49,8.28-9,6.04-.68,1.05,9.67-.95,8.58Z"/>
    <path class="cls-11" d="M957.37,800.29c-.45-3.13-3.12-8.06-9.88-7.3-5.1,.57-5.35,2.63-9.33,6.57-11.94,11.82-30,26.6-52.47,30.66-22.48,4.06-76.52-21.32-109.49-11.75-32.98,9.57-40.84,39.75-88.66,50.82-47.82,11.07-101.48-5.17-115.57-1.73-14.09,3.44-22.5,7.13-21.7,12.64,.8,5.51,8.64,14.16,18.99,17.35,10.35,3.2,99.22,2.65,122.31-2.12,37.71-7.78,67.79-43.82,92.17-47.74,24.38-3.92,77.14,6.1,105.79,2.44,31.95-4.08,55.17-42.57,57.39-41.34,2.23,1.23,4.29,2.43,8.33,1.12,2.77-.9,2.59-6.49,2.14-9.62Z"/>
  </g>
  <path class="cls-1" d="M974.81,793.02c16.96,2.53,82.61,46.33,103.64,59.21,5.16,3.16-24.98,65.84-40.65,55.53-15.67-10.31-31.94-21.61-36.28-2.83-3.4,14.74,3.79,29.09,7.18,67.21,2.42,27.21,19.96,68.34,21.17,85.87,.91,13.25,1.81,31.45-24.81,37.54"/>
  <path class="cls-13" d="M1237.43,857.75c18.28-18.63,9.44-31.29,16.72-32.25,6.4-.84,11.8,6.69,15.23,6.01,14.52-2.87,48.54-20.5,48.55-10.73,0,9.76-9.08,32.23-32.81,35.51-10.77,1.49-26.44,21.11-28.89,23.34-2.45,2.23-18.79-21.88-18.79-21.88Z"/>
  <g>
    <path class="cls-15" d="M1406.93,714.62c12.88,7.58,22.31,20.79,17.11,30.31-3.85,7.04-48.58,98.26-72.75,115.23-28.44,19.97-147.76,31.21-150.15,31.49-6.37,.75-32.11-29.59-35.23-50.07-2.71-17.83,5.99-36.24,6.51-38.86,.52-2.61,61.38,2.73,61.38,2.73l49.01,48.65,124.12-139.48Z"/>
    <path class="cls-2" d="M1168.9,802.03c-18.57,55.17,26.55,84.47,33.4,83.56,77.82-10.34,116.77-16.72,133.98-25.29,17.21-8.57,94.75-105.42,81.95-132.54-10.1-21.4-69.86-46.08-69.86-46.08,0,0-32.34,101.89-56.23,104.66-23.9,2.77-119.38,4.2-123.25,15.68Z"/>
    <path class="cls-1" d="M1350.76,693.18c15.93,12.32,60.16,29.69,60.17,39.34,.02,29.01-60.6,110.29-64.36,104.98-3.76-5.31-43.98-48.71-39.29-52.94,13.97-12.61,43.49-91.39,43.49-91.39Z"/>
    <path class="cls-15" d="M1292.92,793.17c13.6,29.41,39.35,47.94,35.36,53.1-3.99,5.15-81.63,24.84-86.99,20.25-5.36-4.59-37.5-64.94-35.15-67.18,2.35-2.25,86.78-6.16,86.78-6.16Z"/>
    <path class="cls-15" d="M1208.11,822.64c4.62,16.11,16.04,27.06,11.74,30.38-4.3,3.32-28.8,9.65-31.27,7.71-2.47-1.94-13.88-25.31-9.98-34.7,1.64-3.93,25.69-16.7,29.51-3.39Z"/>
  </g>
  <g>
    <g>
      <line class="cls-17" x1="1025.24" y1="628.89" x2="1073.44" y2="571.3"/>
      <line class="cls-17" x1="1013.35" y1="643.09" x2="1016.43" y2="639.41"/>
    </g>
    <g>
      <line class="cls-17" x1="993.83" y1="617.93" x2="1012.22" y2="545.11"/>
      <line class="cls-17" x1="989.29" y1="635.88" x2="990.46" y2="631.23"/>
    </g>
    <g>
      <line class="cls-17" x1="952.38" y1="617" x2="937.96" y2="543.3"/>
      <line class="cls-17" x1="955.94" y1="635.18" x2="955.02" y2="630.47"/>
    </g>
  </g>
</svg>