<?xml version="1.0" encoding="UTF-8"?>
<svg id="planta" xmlns="http://www.w3.org/2000/svg" viewBox="0 0 1920 2500">
  <defs>
    <style>
      .cls-1 {
        fill: #8c4e30;
      }

      .cls-2 {
        fill: #32323f;
        opacity: .23;
      }

      .cls-3 {
        fill: #419f81;
      }

      .cls-4 {
        fill: #1f1f39;
        opacity: .25;
      }

      .cls-5 {
        fill: #6d3522;
      }
    </style>
  </defs>
  <path class="cls-2" d="M479.77,652.45c0,4.2-46.48,9.09-100.03,9.09s-96.96-3.41-96.96-7.61,43.41-7.61,96.96-7.61,100.03,1.94,100.03,6.14Z"/>
  <g>
    <g>
      <path class="cls-3" d="M414.99,582.81c63.65-86.02,147.95-193.14,99.78-172.27-48.17,20.87-51.61,33.19-55.05,49.4-3.44,16.2,63.65-87.02,39.57-135.19-24.09-48.17-75.7-38.63-68.82,15.95,6.88,54.58-12.04-74.45-44.73-67.56-32.69,6.88-94.62,72.12-41.29,112.62,53.33,40.5-65.37-18-63.65,16.41,1.72,34.41,56.77,51.61,60.21,67.1,3.44,15.48-59.07-17.2-49.32,6.88,9.75,24.09,61.36,104.94,59.64,106.66s63.65,0,63.65,0Z"/>
      <path class="cls-1" d="M394.17,651.73c50.79,0,89.3-39.55,89.3-102.68-50.79-18.14-168.68-20.8-187.93,5.08,0,42.93,20.32,97.6,98.62,97.6Z"/>
      <path class="cls-5" d="M489.25,564.17c-26.51-10.69-140.25-14.47-197.55,0-12.82,3.24-10.92-20.52,0-23.09,50.36-11.83,184.72-5.13,197.55,0,12.83,5.13,12.81,28.26,0,23.09Z"/>
    </g>
    <path class="cls-4" d="M489.25,564.17c-1.75-.71-3.88-1.38-6.35-2.03-1.63,18.33-6.73,34.32-14.52,47.53-30.27-4.64-55.49-12.79-66.15-26.57-2.33-3-3.96-6.26-4.81-9.81-1.46-6.13-2.26-12.35-2.5-18.62-.26-6.43,.08-12.89,.9-19.34,.02-.25,.06-.51,.1-.76,6.23-47.51,37.89-93.78,48.96-113.93,12.32-22.39,12.91-78.03-8.48-114.68,13.7-20.69,45.48-16.02,62.88,18.79,13.59,27.18-1.85,71.9-17.27,102.79,7.63-5.1,18.13-10.65,32.76-16.99,39.74-17.22-10.67,52.68-65.28,125.97,20.66,1.29,35.86,3,39.76,4.56,12.83,5.13,12.82,28.26,0,23.09Z"/>
  </g>
</svg>