<?xml version="1.0" encoding="UTF-8"?>
<svg id="Layer_1" data-name="Layer 1" xmlns="http://www.w3.org/2000/svg" viewBox="0 0 50 50">
  <defs>
    <style>
      .cls-1 {
        fill: #218700;
      }

      .cls-2 {
        fill: none;
        stroke: #fff;
        stroke-linecap: round;
        stroke-linejoin: round;
        stroke-width: 3px;
      }
    </style>
  </defs>
  <g>
    <g>
      <rect class="cls-2" x="10.38" y="15.59" width="12.45" height="26.02" transform="translate(-15.36 20.11) rotate(-45)"/>
      <path class="cls-2" d="M11.8,16.41l16.99,16.99-7.39,7.39L4.41,23.8l7.39-7.39m0-1.41L3,23.8l18.4,18.4,8.8-8.8L11.8,15h0Z"/>
    </g>
    <g>
      <rect class="cls-2" x="11.7" y="18.78" width="36.2" height="12.45" transform="translate(-8.95 28.39) rotate(-45)"/>
      <path class="cls-2" d="M38.2,9.21l7.39,7.39-24.19,24.19-7.39-7.39L38.2,9.21m0-1.41L12.6,33.4l8.8,8.8,25.6-25.6-8.8-8.8h0Z"/>
    </g>
  </g>
  <g>
    <rect class="cls-1" x="10.38" y="15.59" width="12.45" height="26.02" transform="translate(-15.36 20.11) rotate(-45)"/>
    <rect class="cls-1" x="11.7" y="18.78" width="36.2" height="12.45" transform="translate(-8.95 28.39) rotate(-45)"/>
  </g>
</svg>